<?xml version="1.0" encoding="utf-8"?>
<!-- Generator: Adobe Illustrator 16.0.3, SVG Export Plug-In . SVG Version: 6.00 Build 0)  -->
<!DOCTYPE svg PUBLIC "-//W3C//DTD SVG 1.1//EN" "http://www.w3.org/Graphics/SVG/1.1/DTD/svg11.dtd">
<svg version="1.1" id="Layer_1" xmlns="http://www.w3.org/2000/svg" xmlns:xlink="http://www.w3.org/1999/xlink" x="0px" y="0px"
	 width="268.527px" height="40px" viewBox="0 0 268.527 40" enable-background="new 0 0 268.527 40" xml:space="preserve">
<g>
	<g>
		<g>
			<g>
				<g>
					<path fill="#FFFFFF" d="M4.585,10.516v7.852H16.95v4.083H4.585v11.157H0V6.395h18.271l-0.04,4.121H4.585z"/>
					<path fill="#FFFFFF" d="M41.715,23.266c0,6.221-4.394,10.496-10.771,10.496c-6.414,0-10.807-4.275-10.807-10.496
						c0-6.259,4.393-10.496,10.807-10.496C37.321,12.77,41.715,17.007,41.715,23.266z M24.609,23.305
						c0,4.005,2.604,6.725,6.335,6.725c3.693,0,6.297-2.72,6.297-6.725c0-3.965-2.604-6.686-6.297-6.686
						C27.213,16.619,24.609,19.34,24.609,23.305z"/>
					<path fill="#FFFFFF" d="M59.792,14.83l-1.633,3.305c-1.829-1.128-4.121-1.828-5.948-1.828c-1.748,0-3.032,0.584-3.032,2.061
						c0,3.811,11.001,1.75,10.963,9.253c0,4.238-3.771,6.142-7.931,6.142c-3.032,0-6.259-1.01-8.317-2.875l1.592-3.189
						c1.787,1.595,4.666,2.566,6.921,2.566c1.905,0,3.382-0.66,3.382-2.216c0-4.237-10.884-1.866-10.848-9.33
						c0-4.198,3.656-5.987,7.621-5.987C55.165,12.73,57.927,13.509,59.792,14.83z"/>
					<path fill="#FFFFFF" d="M76.355,32.285c-1.634,0.971-3.345,1.516-5.095,1.516c-3.109,0-5.792-1.788-5.792-6.025V17.046h-2.915
						v-3.343h2.915V8.026h4.433v5.677h6.102v3.343h-6.102v9.913c0,2.139,0.816,2.799,2.215,2.799c0.932,0,1.905-0.311,3.111-0.894
						L76.355,32.285z"/>
					<path fill="#FFFFFF" d="M98.437,24.977H82.81c0.699,3.188,3.149,5.171,6.413,5.171c2.257,0,4.314-0.855,5.831-2.411
						l2.371,2.527c-2.02,2.217-4.975,3.498-8.553,3.498c-6.375,0-10.573-4.236-10.573-10.457c0-6.259,4.317-10.496,10.459-10.535
						C96.028,12.77,98.981,17.513,98.437,24.977z M94.55,21.711c-0.156-3.344-2.371-5.364-5.755-5.364
						c-3.264,0-5.56,2.06-6.063,5.364H94.55z"/>
					<path fill="#FFFFFF" d="M107.574,17.046c1.399-2.8,3.886-4.276,7.151-4.276v4.276c-4.158-0.233-6.8,2.216-7.151,5.753v10.809
						h-4.47V12.926h4.47V17.046z"/>
					<path fill="#FFFFFF" d="M178.407,29.447v4.16h-16.366V6.395h4.588v23.053H178.407z"/>
					<path fill="#FFFFFF" d="M200.726,24.977h-15.628c0.698,3.188,3.146,5.171,6.412,5.171c2.255,0,4.314-0.855,5.83-2.411
						l2.373,2.527c-2.021,2.217-4.977,3.498-8.551,3.498c-6.377,0-10.575-4.236-10.575-10.457c0-6.259,4.315-10.496,10.456-10.535
						C198.313,12.77,201.27,17.513,200.726,24.977z M196.835,21.711c-0.154-3.344-2.37-5.364-5.753-5.364
						c-3.266,0-5.557,2.06-6.065,5.364H196.835z"/>
					<path fill="#FFFFFF" d="M223.584,24.977h-15.627c0.7,3.188,3.148,5.171,6.414,5.171c2.255,0,4.315-0.855,5.831-2.411
						l2.37,2.527c-2.02,2.217-4.975,3.498-8.553,3.498c-6.373,0-10.575-4.236-10.575-10.457c0-6.259,4.317-10.496,10.46-10.535
						C221.176,12.77,224.129,17.513,223.584,24.977z M219.696,21.711c-0.155-3.344-2.37-5.364-5.752-5.364
						c-3.267,0-5.56,2.06-6.065,5.364H219.696z"/>
					<path fill="#FFFFFF" d="M247.962,33.607h-4.471v-3.539c-1.479,2.412-3.964,3.732-7.271,3.732
						c-5.951,0-9.915-4.314-9.915-10.612c0-6.221,4.006-10.458,9.836-10.458c3.344,0,5.834,1.361,7.35,3.771V4.762h4.471V33.607z
						 M243.491,23.344c0-4.004-2.607-6.803-6.336-6.803c-3.732,0-6.339,2.837-6.376,6.803c0.037,3.927,2.603,6.725,6.376,6.725
						C240.884,30.068,243.491,27.271,243.491,23.344z"/>
					<path fill="#FFFFFF" d="M268.178,14.83l-1.63,3.305c-1.83-1.128-4.125-1.828-5.95-1.828c-1.75,0-3.033,0.584-3.033,2.061
						c0,3.811,11.004,1.75,10.963,9.253c0,4.238-3.771,6.142-7.93,6.142c-3.033,0-6.261-1.01-8.32-2.875l1.594-3.189
						c1.789,1.595,4.667,2.566,6.92,2.566c1.906,0,3.382-0.66,3.382-2.216c0-4.237-10.883-1.866-10.844-9.33
						c0-4.198,3.651-5.987,7.617-5.987C263.554,12.73,266.311,13.509,268.178,14.83z"/>
					<g>
						<g>
							<path fill="#FFFFFF" d="M140.407,24.172v-9.486h6.292v9.486h5.828v6.002h-5.828V40h-6.292v-9.826h-19.08v-5.028L134.98,0
								h6.518l-12.974,24.172H140.407z"/>
						</g>
					</g>
				</g>
			</g>
		</g>
	</g>
</g>
</svg>
